<svg width="16" height="17" viewBox="0 0 16 17" fill="none" xmlns="http://www.w3.org/2000/svg">
<path d="M8 6.392C7.6076 6.392 7.22402 6.51563 6.89775 6.74726C6.57148 6.97889 6.31719 7.30812 6.16702 7.6933C6.01686 8.07849 5.97757 8.50234 6.05412 8.91125C6.13068 9.32016 6.31963 9.69577 6.5971 9.99058C6.87457 10.2854 7.22808 10.4862 7.61294 10.5675C7.9978 10.6488 8.39672 10.6071 8.75924 10.4475C9.12177 10.288 9.43163 10.0178 9.64964 9.67114C9.86764 9.32448 9.984 8.91692 9.984 8.5C9.984 8.22317 9.93268 7.94906 9.83298 7.6933C9.73327 7.43755 9.58713 7.20516 9.4029 7.00942C9.21867 6.81367 8.99995 6.6584 8.75924 6.55246C8.51853 6.44652 8.26054 6.392 8 6.392V6.392ZM15.944 4.3095C15.9398 3.65309 15.826 3.00269 15.608 2.3885C15.4474 1.93907 15.199 1.53093 14.8791 1.19101C14.5591 0.851085 14.175 0.58711 13.752 0.4165C13.1739 0.184844 12.5618 0.0639718 11.944 0.0594999C10.912 -5.69969e-08 10.608 0 8 0C5.392 0 5.088 -5.69969e-08 4.056 0.0594999C3.43821 0.0639718 2.82606 0.184844 2.248 0.4165C1.82501 0.58711 1.44088 0.851085 1.12095 1.19101C0.801021 1.53093 0.552574 1.93907 0.392 2.3885C0.173971 3.00269 0.0602087 3.65309 0.0559999 4.3095C-5.36442e-08 5.406 0 5.729 0 8.5C0 11.271 -5.36442e-08 11.594 0.0559999 12.6905C0.0646111 13.3492 0.178219 14.0016 0.392 14.62C0.551862 15.0674 0.800103 15.4732 1.12 15.81C1.43855 16.152 1.82351 16.4159 2.248 16.5835C2.82606 16.8152 3.43821 16.936 4.056 16.9405C5.088 17 5.392 17 8 17C10.608 17 10.912 17 11.944 16.9405C12.5618 16.936 13.1739 16.8152 13.752 16.5835C14.1765 16.4159 14.5614 16.152 14.88 15.81C15.1999 15.4732 15.4481 15.0674 15.608 14.62C15.8258 14.0028 15.9396 13.3496 15.944 12.6905C16 11.594 16 11.271 16 8.5C16 5.729 16 5.406 15.944 4.3095V4.3095ZM13.912 11.1095C13.8863 11.634 13.781 12.1507 13.6 12.6395C13.4447 13.0472 13.2138 13.4176 12.9211 13.7286C12.6284 14.0397 12.2797 14.285 11.896 14.45C11.4316 14.6316 10.9426 14.732 10.448 14.7475C9.816 14.7475 9.648 14.7475 8 14.7475C6.352 14.7475 6.184 14.7475 5.552 14.7475C5.05738 14.732 4.56839 14.6316 4.104 14.45C3.70728 14.2934 3.34902 14.0435 3.056 13.719C2.76613 13.4141 2.54228 13.0457 2.4 12.6395C2.22845 12.1466 2.13649 11.6264 2.128 11.101C2.128 10.4295 2.128 10.251 2.128 8.5C2.128 6.749 2.128 6.5705 2.128 5.899C2.13649 5.37355 2.22845 4.8534 2.4 4.3605C2.54743 3.93899 2.78262 3.55834 3.088 3.247C3.37627 2.94068 3.72261 2.70308 4.104 2.55C4.56839 2.36844 5.05738 2.26798 5.552 2.2525V2.2525C6.184 2.2525 6.352 2.2525 8 2.2525C9.648 2.2525 9.816 2.2525 10.448 2.2525C10.9426 2.26798 11.4316 2.36844 11.896 2.55C12.2927 2.70664 12.651 2.95653 12.944 3.281C13.2339 3.58594 13.4577 3.95431 13.6 4.3605C13.7709 4.85392 13.8654 5.37347 13.88 5.899C13.88 6.5705 13.88 6.749 13.88 8.5C13.88 10.251 13.936 10.4295 13.912 11.101V11.1095ZM12.632 4.7855C12.5368 4.51094 12.3866 4.2616 12.1918 4.05468C11.9971 3.84777 11.7624 3.6882 11.504 3.587C11.1492 3.45632 10.7755 3.39302 10.4 3.4C9.776 3.4 9.6 3.4 8 3.4C6.4 3.4 6.224 3.4 5.6 3.4C5.22261 3.40392 4.84886 3.47874 4.496 3.621C4.24154 3.71761 4.00935 3.87066 3.81487 4.06997C3.62038 4.26929 3.46805 4.5103 3.368 4.777C3.25182 5.15556 3.19506 5.55186 3.2 5.95C3.2 6.613 3.2 6.8 3.2 8.5C3.2 10.2 3.2 10.387 3.2 11.05C3.20793 11.4505 3.27822 11.8469 3.408 12.223C3.50325 12.4976 3.65343 12.7469 3.84817 12.9538C4.04291 13.1607 4.27759 13.3203 4.536 13.4215C4.87733 13.5549 5.23652 13.6295 5.6 13.6425V13.6425C6.224 13.6425 6.4 13.6425 8 13.6425C9.6 13.6425 9.776 13.6425 10.4 13.6425C10.7774 13.6386 11.1511 13.5638 11.504 13.4215C11.7624 13.3203 11.9971 13.1607 12.1918 12.9538C12.3866 12.7469 12.5368 12.4976 12.632 12.223C12.7659 11.8481 12.8363 11.451 12.84 11.05C12.84 10.387 12.84 10.2 12.84 8.5C12.84 6.8 12.84 6.613 12.84 5.95C12.8402 5.54863 12.7697 5.15076 12.632 4.777V4.7855ZM8 11.747C7.59906 11.747 7.20205 11.663 6.83173 11.4997C6.46141 11.3364 6.12504 11.0971 5.84191 10.7955C5.55877 10.4938 5.33442 10.1358 5.18172 9.74193C5.02901 9.34804 4.95095 8.926 4.952 8.5V8.5C4.952 7.85744 5.13144 7.22933 5.46759 6.69518C5.80374 6.16103 6.2815 5.74486 6.84037 5.49936C7.39925 5.25385 8.01412 5.19005 8.60714 5.31603C9.20017 5.442 9.74468 5.75209 10.1717 6.20705C10.5988 6.662 10.8892 7.24135 11.0063 7.87177C11.1233 8.50218 11.0616 9.15531 10.8291 9.74847C10.5965 10.3416 10.2036 10.8482 9.7 11.2039C9.19639 11.5597 8.60476 11.7487 8 11.747V11.747ZM11.2 5.8905C11.0232 5.87061 10.8595 5.78189 10.7405 5.64143C10.6216 5.50096 10.5558 5.3187 10.5558 5.12975C10.5558 4.9408 10.6216 4.75854 10.7405 4.61808C10.8595 4.47761 11.0232 4.38889 11.2 4.369V4.369C11.3768 4.38889 11.5405 4.47761 11.6595 4.61808C11.7784 4.75854 11.8442 4.9408 11.8442 5.12975C11.8442 5.3187 11.7784 5.50096 11.6595 5.64143C11.5405 5.78189 11.3768 5.87061 11.2 5.8905Z" fill="#2D2D2D"/>
</svg>
