<svg width="17" height="11" viewBox="0 0 17 11" fill="none" xmlns="http://www.w3.org/2000/svg">
<path fill-rule="evenodd" clip-rule="evenodd" d="M16.5094 0.763889C16.6348 0.333056 16.5094 0.019861 15.9546 0.019861H14.1099C13.6446 0.019861 13.4298 0.294097 13.3044 0.58743C13.3044 0.58743 12.3554 3.09299 11.0303 4.7174C10.6006 5.18719 10.4037 5.34378 10.1709 5.34378C10.0455 5.34378 9.88414 5.18719 9.88414 4.75674V0.743646C9.88414 0.234896 9.74114 0 9.34698 0H6.44595C6.15923 0 5.98029 0.234896 5.98029 0.469792C5.98029 0.959063 6.64285 1.0767 6.71436 2.44674V5.42361C6.71436 6.06948 6.60869 6.1875 6.3741 6.1875C5.74746 6.1875 4.22544 3.66247 3.31244 0.785278C3.13492 0.215417 2.95457 0 2.48891 0H0.626631C0.0894684 0 0 0.273854 0 0.567569C0 1.09618 0.626631 3.75795 2.91864 7.28101C4.44066 9.68726 6.60728 10.9805 8.55903 10.9805C9.74114 10.9805 9.88414 10.6868 9.88414 10.1975V8.37719C9.88414 7.79014 9.99158 7.69236 10.3678 7.69236C10.6362 7.69236 11.1198 7.84858 12.2121 9.00358C13.4653 10.3736 13.6802 11 14.3787 11H16.223C16.7602 11 17.011 10.7063 16.8676 10.1387C16.7066 9.57115 16.0976 8.7492 15.3097 7.77066C14.8799 7.22295 14.2353 6.61604 14.0384 6.32233C13.77 5.93083 13.8415 5.77424 14.0384 5.42208C14.0205 5.42208 16.2769 1.93799 16.5094 0.762361" fill="#2D2D2D"/>
</svg>
